<svg width="168" height="45" viewBox="0 0 168 45" fill="none" xmlns="http://www.w3.org/2000/svg">
<path d="M13.848 25.92C13.848 26.336 13.824 26.776 13.776 27.24H3.264C3.344 28.536 3.784 29.552 4.584 30.288C5.4 31.008 6.384 31.368 7.536 31.368C8.48 31.368 9.264 31.152 9.888 30.72C10.528 30.272 10.976 29.68 11.232 28.944H13.584C13.232 30.208 12.528 31.24 11.472 32.04C10.416 32.824 9.104 33.216 7.536 33.216C6.288 33.216 5.168 32.936 4.176 32.376C3.2 31.816 2.432 31.024 1.872 30C1.312 28.96 1.032 27.76 1.032 26.4C1.032 25.04 1.304 23.848 1.848 22.824C2.392 21.8 3.152 21.016 4.128 20.472C5.12 19.912 6.256 19.632 7.536 19.632C8.784 19.632 9.888 19.904 10.848 20.448C11.808 20.992 12.544 21.744 13.056 22.704C13.584 23.648 13.848 24.72 13.848 25.92ZM11.592 25.464C11.592 24.632 11.408 23.92 11.04 23.328C10.672 22.72 10.168 22.264 9.528 21.96C8.904 21.64 8.208 21.48 7.44 21.48C6.336 21.48 5.392 21.832 4.608 22.536C3.84 23.24 3.4 24.216 3.288 25.464H11.592ZM20.4748 22.272C20.9068 21.52 21.5468 20.896 22.3948 20.4C23.2588 19.888 24.2588 19.632 25.3948 19.632C26.5628 19.632 27.6188 19.912 28.5628 20.472C29.5228 21.032 30.2748 21.824 30.8188 22.848C31.3628 23.856 31.6348 25.032 31.6348 26.376C31.6348 27.704 31.3628 28.888 30.8188 29.928C30.2748 30.968 29.5228 31.776 28.5628 32.352C27.6188 32.928 26.5628 33.216 25.3948 33.216C24.2748 33.216 23.2828 32.968 22.4188 32.472C21.5708 31.96 20.9228 31.328 20.4748 30.576V39.24H18.2908V19.848H20.4748V22.272ZM29.4028 26.376C29.4028 25.384 29.2028 24.52 28.8028 23.784C28.4028 23.048 27.8588 22.488 27.1708 22.104C26.4988 21.72 25.7548 21.528 24.9388 21.528C24.1388 21.528 23.3948 21.728 22.7068 22.128C22.0348 22.512 21.4908 23.08 21.0748 23.832C20.6748 24.568 20.4748 25.424 20.4748 26.4C20.4748 27.392 20.6748 28.264 21.0748 29.016C21.4908 29.752 22.0348 30.32 22.7068 30.72C23.3948 31.104 24.1388 31.296 24.9388 31.296C25.7548 31.296 26.4988 31.104 27.1708 30.72C27.8588 30.32 28.4028 29.752 28.8028 29.016C29.2028 28.264 29.4028 27.384 29.4028 26.376ZM37.1976 17.712C36.7816 17.712 36.4296 17.568 36.1416 17.28C35.8536 16.992 35.7096 16.64 35.7096 16.224C35.7096 15.808 35.8536 15.456 36.1416 15.168C36.4296 14.88 36.7816 14.736 37.1976 14.736C37.5976 14.736 37.9336 14.88 38.2056 15.168C38.4936 15.456 38.6376 15.808 38.6376 16.224C38.6376 16.64 38.4936 16.992 38.2056 17.28C37.9336 17.568 37.5976 17.712 37.1976 17.712ZM38.2536 19.848V33H36.0696V19.848H38.2536ZM42.7198 26.4C42.7198 25.04 42.9918 23.856 43.5358 22.848C44.0798 21.824 44.8318 21.032 45.7918 20.472C46.7678 19.912 47.8798 19.632 49.1278 19.632C50.7438 19.632 52.0718 20.024 53.1118 20.808C54.1678 21.592 54.8638 22.68 55.1998 24.072H52.8478C52.6238 23.272 52.1838 22.64 51.5278 22.176C50.8878 21.712 50.0878 21.48 49.1278 21.48C47.8798 21.48 46.8718 21.912 46.1038 22.776C45.3358 23.624 44.9518 24.832 44.9518 26.4C44.9518 27.984 45.3358 29.208 46.1038 30.072C46.8718 30.936 47.8798 31.368 49.1278 31.368C50.0878 31.368 50.8878 31.144 51.5278 30.696C52.1678 30.248 52.6078 29.608 52.8478 28.776H55.1998C54.8478 30.12 54.1438 31.2 53.0878 32.016C52.0318 32.816 50.7118 33.216 49.1278 33.216C47.8798 33.216 46.7678 32.936 45.7918 32.376C44.8318 31.816 44.0798 31.024 43.5358 30C42.9918 28.976 42.7198 27.776 42.7198 26.4ZM72.5859 33L68.2959 26.55L64.5159 33H58.6959L65.4459 22.29L58.5459 11.94H64.5159L68.7459 18.3L72.4659 11.94H78.2859L71.5959 22.56L78.5559 33H72.5859Z" fill="white"/>
<path d="M163 5H100C97.2386 5 95 7.23858 95 10V36C95 38.7614 97.2386 41 100 41H163C165.761 41 168 38.7614 168 36V10C168 7.23858 165.761 5 163 5Z" fill="url(#paint0_linear)"/>
<path d="M123.96 16.04V30H121.16V24.06H115.18V30H112.38V16.04H115.18V21.78H121.16V16.04H123.96ZM137.176 18.92V30H134.356V28.6C133.996 29.08 133.523 29.46 132.936 29.74C132.363 30.0067 131.736 30.14 131.056 30.14C130.189 30.14 129.423 29.96 128.756 29.6C128.089 29.2267 127.563 28.6867 127.176 27.98C126.803 27.26 126.616 26.4067 126.616 25.42V18.92H129.416V25.02C129.416 25.9 129.636 26.58 130.076 27.06C130.516 27.5267 131.116 27.76 131.876 27.76C132.649 27.76 133.256 27.5267 133.696 27.06C134.136 26.58 134.356 25.9 134.356 25.02V18.92H137.176ZM142.739 20.54C143.099 20.0067 143.592 19.5733 144.219 19.24C144.859 18.9067 145.585 18.74 146.399 18.74C147.345 18.74 148.199 18.9733 148.959 19.44C149.732 19.9067 150.339 20.5733 150.779 21.44C151.232 22.2933 151.459 23.2867 151.459 24.42C151.459 25.5533 151.232 26.56 150.779 27.44C150.339 28.3067 149.732 28.98 148.959 29.46C148.199 29.94 147.345 30.18 146.399 30.18C145.572 30.18 144.845 30.02 144.219 29.7C143.605 29.3667 143.112 28.94 142.739 28.42V30H139.939V15.2H142.739V20.54ZM148.599 24.42C148.599 23.7533 148.459 23.18 148.179 22.7C147.912 22.2067 147.552 21.8333 147.099 21.58C146.659 21.3267 146.179 21.2 145.659 21.2C145.152 21.2 144.672 21.3333 144.219 21.6C143.779 21.8533 143.419 22.2267 143.139 22.72C142.872 23.2133 142.739 23.7933 142.739 24.46C142.739 25.1267 142.872 25.7067 143.139 26.2C143.419 26.6933 143.779 27.0733 144.219 27.34C144.672 27.5933 145.152 27.72 145.659 27.72C146.179 27.72 146.659 27.5867 147.099 27.32C147.552 27.0533 147.912 26.6733 148.179 26.18C148.459 25.6867 148.599 25.1 148.599 24.42Z" fill="white"/>
<defs>
<linearGradient id="paint0_linear" x1="95" y1="5" x2="171.521" y2="30.3878" gradientUnits="userSpaceOnUse">
<stop stop-color="#6186DB"/>
<stop offset="1" stop-color="#6B61DB"/>
</linearGradient>
</defs>
</svg>
