<svg width="138" height="28" viewBox="0 0 138 28" fill="none" xmlns="http://www.w3.org/2000/svg">
<rect width="138" height="28" fill="#48A7FF"/>
<path d="M14.125 7.125H15.5417V8.54167H14.125V7.125ZM16.9583 7.125H18.375V8.54167H16.9583V7.125ZM19.7917 7.125H21.2083V8.54167H19.7917V7.125ZM22.625 7.125H24.0417V8.54167H22.625V7.125ZM25.4583 7.125H26.875V8.54167H25.4583V7.125ZM25.4583 9.95833H26.875V11.375H25.4583V9.95833ZM14.125 18.4583H15.5417V19.875H14.125V18.4583ZM14.125 15.625H15.5417V17.0417H14.125V15.625ZM14.125 12.7917H15.5417V14.2083H14.125V12.7917ZM14.125 9.95833H15.5417V11.375H14.125V9.95833ZM19.5558 12.7917L20.2896 11.6902C20.3543 11.5932 20.442 11.5137 20.5448 11.4587C20.6476 11.4037 20.7624 11.375 20.879 11.375H22.9544C23.071 11.375 23.1857 11.4037 23.2886 11.4587C23.3914 11.5137 23.479 11.5932 23.5437 11.6902L24.2775 12.7917H26.1667C26.3545 12.7917 26.5347 12.8663 26.6675 12.9991C26.8004 13.132 26.875 13.3121 26.875 13.5V19.1667C26.875 19.3545 26.8004 19.5347 26.6675 19.6675C26.5347 19.8004 26.3545 19.875 26.1667 19.875H17.6667C17.4788 19.875 17.2986 19.8004 17.1658 19.6675C17.033 19.5347 16.9583 19.3545 16.9583 19.1667V13.5C16.9583 13.3121 17.033 13.132 17.1658 12.9991C17.2986 12.8663 17.4788 12.7917 17.6667 12.7917H19.5558ZM21.9167 17.75C22.2924 17.75 22.6527 17.6007 22.9184 17.3351C23.1841 17.0694 23.3333 16.7091 23.3333 16.3333C23.3333 15.9576 23.1841 15.5973 22.9184 15.3316C22.6527 15.0659 22.2924 14.9167 21.9167 14.9167C21.5409 14.9167 21.1806 15.0659 20.9149 15.3316C20.6493 15.5973 20.5 15.9576 20.5 16.3333C20.5 16.7091 20.6493 17.0694 20.9149 17.3351C21.1806 17.6007 21.5409 17.75 21.9167 17.75Z" fill="#21598D"/>
<path d="M47.16 17.07C46.6467 17.07 46.1867 16.9867 45.78 16.82C45.3733 16.6533 45.0467 16.4067 44.8 16.08C44.56 15.7533 44.4333 15.36 44.42 14.9H46.24C46.2667 15.16 46.3567 15.36 46.51 15.5C46.6633 15.6333 46.8633 15.7 47.11 15.7C47.3633 15.7 47.5633 15.6433 47.71 15.53C47.8567 15.41 47.93 15.2467 47.93 15.04C47.93 14.8667 47.87 14.7233 47.75 14.61C47.6367 14.4967 47.4933 14.4033 47.32 14.33C47.1533 14.2567 46.9133 14.1733 46.6 14.08C46.1467 13.94 45.7767 13.8 45.49 13.66C45.2033 13.52 44.9567 13.3133 44.75 13.04C44.5433 12.7667 44.44 12.41 44.44 11.97C44.44 11.3167 44.6767 10.8067 45.15 10.44C45.6233 10.0667 46.24 9.88 47 9.88C47.7733 9.88 48.3967 10.0667 48.87 10.44C49.3433 10.8067 49.5967 11.32 49.63 11.98H47.78C47.7667 11.7533 47.6833 11.5767 47.53 11.45C47.3767 11.3167 47.18 11.25 46.94 11.25C46.7333 11.25 46.5667 11.3067 46.44 11.42C46.3133 11.5267 46.25 11.6833 46.25 11.89C46.25 12.1167 46.3567 12.2933 46.57 12.42C46.7833 12.5467 47.1167 12.6833 47.57 12.83C48.0233 12.9833 48.39 13.13 48.67 13.27C48.9567 13.41 49.2033 13.6133 49.41 13.88C49.6167 14.1467 49.72 14.49 49.72 14.91C49.72 15.31 49.6167 15.6733 49.41 16C49.21 16.3267 48.9167 16.5867 48.53 16.78C48.1433 16.9733 47.6867 17.07 47.16 17.07ZM51.6323 14.21C51.6323 13.63 51.749 13.1233 51.9823 12.69C52.2223 12.2567 52.5523 11.9233 52.9723 11.69C53.399 11.4567 53.8857 11.34 54.4323 11.34C55.1323 11.34 55.7157 11.5233 56.1823 11.89C56.6557 12.2567 56.9657 12.7733 57.1123 13.44H55.2923C55.139 13.0133 54.8423 12.8 54.4023 12.8C54.089 12.8 53.839 12.9233 53.6523 13.17C53.4657 13.41 53.3723 13.7567 53.3723 14.21C53.3723 14.6633 53.4657 15.0133 53.6523 15.26C53.839 15.5 54.089 15.62 54.4023 15.62C54.8423 15.62 55.139 15.4067 55.2923 14.98H57.1123C56.9657 15.6333 56.6557 16.1467 56.1823 16.52C55.709 16.8933 55.1257 17.08 54.4323 17.08C53.8857 17.08 53.399 16.9633 52.9723 16.73C52.5523 16.4967 52.2223 16.1633 51.9823 15.73C51.749 15.2967 51.6323 14.79 51.6323 14.21ZM60.937 12.35C61.137 12.0433 61.387 11.8033 61.687 11.63C61.987 11.45 62.3204 11.36 62.687 11.36V13.17H62.217C61.7904 13.17 61.4704 13.2633 61.257 13.45C61.0437 13.63 60.937 13.95 60.937 14.41V17H59.227V11.42H60.937V12.35ZM69.9644 14.12C69.9644 14.28 69.9544 14.4467 69.9344 14.62H66.0644C66.091 14.9667 66.201 15.2333 66.3944 15.42C66.5944 15.6 66.8377 15.69 67.1244 15.69C67.551 15.69 67.8477 15.51 68.0144 15.15H69.8344C69.741 15.5167 69.571 15.8467 69.3244 16.14C69.0844 16.4333 68.781 16.6633 68.4144 16.83C68.0477 16.9967 67.6377 17.08 67.1844 17.08C66.6377 17.08 66.151 16.9633 65.7244 16.73C65.2977 16.4967 64.9644 16.1633 64.7244 15.73C64.4844 15.2967 64.3644 14.79 64.3644 14.21C64.3644 13.63 64.481 13.1233 64.7144 12.69C64.9544 12.2567 65.2877 11.9233 65.7144 11.69C66.141 11.4567 66.631 11.34 67.1844 11.34C67.7244 11.34 68.2044 11.4533 68.6244 11.68C69.0444 11.9067 69.371 12.23 69.6044 12.65C69.8444 13.07 69.9644 13.56 69.9644 14.12ZM68.2144 13.67C68.2144 13.3767 68.1144 13.1433 67.9144 12.97C67.7144 12.7967 67.4644 12.71 67.1644 12.71C66.8777 12.71 66.6344 12.7933 66.4344 12.96C66.241 13.1267 66.121 13.3633 66.0744 13.67H68.2144ZM77.3265 14.12C77.3265 14.28 77.3165 14.4467 77.2965 14.62H73.4265C73.4532 14.9667 73.5632 15.2333 73.7565 15.42C73.9565 15.6 74.1998 15.69 74.4865 15.69C74.9132 15.69 75.2098 15.51 75.3765 15.15H77.1965C77.1032 15.5167 76.9332 15.8467 76.6865 16.14C76.4465 16.4333 76.1432 16.6633 75.7765 16.83C75.4098 16.9967 74.9998 17.08 74.5465 17.08C73.9998 17.08 73.5132 16.9633 73.0865 16.73C72.6598 16.4967 72.3265 16.1633 72.0865 15.73C71.8465 15.2967 71.7265 14.79 71.7265 14.21C71.7265 13.63 71.8432 13.1233 72.0765 12.69C72.3165 12.2567 72.6498 11.9233 73.0765 11.69C73.5032 11.4567 73.9932 11.34 74.5465 11.34C75.0865 11.34 75.5665 11.4533 75.9865 11.68C76.4065 11.9067 76.7332 12.23 76.9665 12.65C77.2065 13.07 77.3265 13.56 77.3265 14.12ZM75.5765 13.67C75.5765 13.3767 75.4765 13.1433 75.2765 12.97C75.0765 12.7967 74.8265 12.71 74.5265 12.71C74.2398 12.71 73.9965 12.7933 73.7965 12.96C73.6032 13.1267 73.4832 13.3633 73.4365 13.67H75.5765ZM82.8286 11.36C83.4819 11.36 84.0019 11.5733 84.3886 12C84.7819 12.42 84.9786 13 84.9786 13.74V17H83.2786V13.97C83.2786 13.5967 83.1819 13.3067 82.9886 13.1C82.7953 12.8933 82.5353 12.79 82.2086 12.79C81.8819 12.79 81.6219 12.8933 81.4286 13.1C81.2353 13.3067 81.1386 13.5967 81.1386 13.97V17H79.4286V11.42H81.1386V12.16C81.3119 11.9133 81.5453 11.72 81.8386 11.58C82.1319 11.4333 82.4619 11.36 82.8286 11.36ZM89.6369 17.08C89.1502 17.08 88.7169 16.9967 88.3369 16.83C87.9569 16.6633 87.6569 16.4367 87.4369 16.15C87.2169 15.8567 87.0935 15.53 87.0669 15.17H88.7569C88.7769 15.3633 88.8669 15.52 89.0269 15.64C89.1869 15.76 89.3835 15.82 89.6169 15.82C89.8302 15.82 89.9935 15.78 90.1069 15.7C90.2269 15.6133 90.2869 15.5033 90.2869 15.37C90.2869 15.21 90.2035 15.0933 90.0369 15.02C89.8702 14.94 89.6002 14.8533 89.2269 14.76C88.8269 14.6667 88.4935 14.57 88.2269 14.47C87.9602 14.3633 87.7302 14.2 87.5369 13.98C87.3435 13.7533 87.2469 13.45 87.2469 13.07C87.2469 12.75 87.3335 12.46 87.5069 12.2C87.6869 11.9333 87.9469 11.7233 88.2869 11.57C88.6335 11.4167 89.0435 11.34 89.5169 11.34C90.2169 11.34 90.7669 11.5133 91.1669 11.86C91.5735 12.2067 91.8069 12.6667 91.8669 13.24H90.2869C90.2602 13.0467 90.1735 12.8933 90.0269 12.78C89.8869 12.6667 89.7002 12.61 89.4669 12.61C89.2669 12.61 89.1135 12.65 89.0069 12.73C88.9002 12.8033 88.8469 12.9067 88.8469 13.04C88.8469 13.2 88.9302 13.32 89.0969 13.4C89.2702 13.48 89.5369 13.56 89.8969 13.64C90.3102 13.7467 90.6469 13.8533 90.9069 13.96C91.1669 14.06 91.3935 14.2267 91.5869 14.46C91.7869 14.6867 91.8902 14.9933 91.8969 15.38C91.8969 15.7067 91.8035 16 91.6169 16.26C91.4369 16.5133 91.1735 16.7133 90.8269 16.86C90.4869 17.0067 90.0902 17.08 89.6369 17.08ZM97.573 11.36C98.213 11.36 98.7264 11.5733 99.113 12C99.4997 12.42 99.693 13 99.693 13.74V17H97.993V13.97C97.993 13.5967 97.8964 13.3067 97.703 13.1C97.5097 12.8933 97.2497 12.79 96.923 12.79C96.5964 12.79 96.3364 12.8933 96.143 13.1C95.9497 13.3067 95.853 13.5967 95.853 13.97V17H94.143V9.6H95.853V12.17C96.0264 11.9233 96.263 11.7267 96.563 11.58C96.863 11.4333 97.1997 11.36 97.573 11.36ZM104.621 17.08C104.075 17.08 103.581 16.9633 103.141 16.73C102.708 16.4967 102.365 16.1633 102.111 15.73C101.865 15.2967 101.741 14.79 101.741 14.21C101.741 13.6367 101.868 13.1333 102.121 12.7C102.375 12.26 102.721 11.9233 103.161 11.69C103.601 11.4567 104.095 11.34 104.641 11.34C105.188 11.34 105.681 11.4567 106.121 11.69C106.561 11.9233 106.908 12.26 107.161 12.7C107.415 13.1333 107.541 13.6367 107.541 14.21C107.541 14.7833 107.411 15.29 107.151 15.73C106.898 16.1633 106.548 16.4967 106.101 16.73C105.661 16.9633 105.168 17.08 104.621 17.08ZM104.621 15.6C104.948 15.6 105.225 15.48 105.451 15.24C105.685 15 105.801 14.6567 105.801 14.21C105.801 13.7633 105.688 13.42 105.461 13.18C105.241 12.94 104.968 12.82 104.641 12.82C104.308 12.82 104.031 12.94 103.811 13.18C103.591 13.4133 103.481 13.7567 103.481 14.21C103.481 14.6567 103.588 15 103.801 15.24C104.021 15.48 104.295 15.6 104.621 15.6ZM112.759 15.55V17H111.889C111.269 17 110.785 16.85 110.439 16.55C110.092 16.2433 109.919 15.7467 109.919 15.06V12.84H109.239V11.42H109.919V10.06H111.629V11.42H112.749V12.84H111.629V15.08C111.629 15.2467 111.669 15.3667 111.749 15.44C111.829 15.5133 111.962 15.55 112.149 15.55H112.759ZM117.181 17.08C116.694 17.08 116.261 16.9967 115.881 16.83C115.501 16.6633 115.201 16.4367 114.981 16.15C114.761 15.8567 114.638 15.53 114.611 15.17H116.301C116.321 15.3633 116.411 15.52 116.571 15.64C116.731 15.76 116.928 15.82 117.161 15.82C117.374 15.82 117.538 15.78 117.651 15.7C117.771 15.6133 117.831 15.5033 117.831 15.37C117.831 15.21 117.748 15.0933 117.581 15.02C117.414 14.94 117.144 14.8533 116.771 14.76C116.371 14.6667 116.038 14.57 115.771 14.47C115.504 14.3633 115.274 14.2 115.081 13.98C114.888 13.7533 114.791 13.45 114.791 13.07C114.791 12.75 114.878 12.46 115.051 12.2C115.231 11.9333 115.491 11.7233 115.831 11.57C116.178 11.4167 116.588 11.34 117.061 11.34C117.761 11.34 118.311 11.5133 118.711 11.86C119.118 12.2067 119.351 12.6667 119.411 13.24H117.831C117.804 13.0467 117.718 12.8933 117.571 12.78C117.431 12.6667 117.244 12.61 117.011 12.61C116.811 12.61 116.658 12.65 116.551 12.73C116.444 12.8033 116.391 12.9067 116.391 13.04C116.391 13.2 116.474 13.32 116.641 13.4C116.814 13.48 117.081 13.56 117.441 13.64C117.854 13.7467 118.191 13.8533 118.451 13.96C118.711 14.06 118.938 14.2267 119.131 14.46C119.331 14.6867 119.434 14.9933 119.441 15.38C119.441 15.7067 119.348 16 119.161 16.26C118.981 16.5133 118.718 16.7133 118.371 16.86C118.031 17.0067 117.634 17.08 117.181 17.08Z" fill="#12314E"/>
</svg>
