<svg width="123" height="28" viewBox="0 0 123 28" fill="none" xmlns="http://www.w3.org/2000/svg">
<rect width="123" height="28" fill="#D66700"/>
<path d="M22.2084 14.2084V18.1644L23.5032 16.8696L24.5055 17.8719L21.5 20.8766L18.4946 17.8719L19.4969 16.8696L20.7917 18.1644V14.2084H22.2084ZM21.5 6.41669C22.7162 6.41674 23.89 6.86373 24.7982 7.67265C25.7064 8.48157 26.2856 9.59601 26.4258 10.8041C27.3072 11.0445 28.076 11.5869 28.598 12.3366C29.12 13.0863 29.3619 13.9956 29.2815 14.9056C29.2011 15.8156 28.8035 16.6684 28.1581 17.315C27.5127 17.9615 26.6606 18.3607 25.7508 18.4428L25.75 17.0417C25.7512 15.9276 25.3148 14.8576 24.5348 14.062C23.7548 13.2665 22.6937 12.8091 21.5797 12.7882C20.4658 12.7673 19.3883 13.1846 18.579 13.9503C17.7698 14.7161 17.2935 15.7689 17.2529 16.8823L17.25 17.0417V18.4428C16.3402 18.3608 15.488 17.9617 14.8425 17.3152C14.197 16.6687 13.7993 15.816 13.7188 14.9059C13.6383 13.9959 13.8801 13.0866 14.4021 12.3368C14.9241 11.587 15.6929 11.0445 16.5743 10.8041C16.7143 9.59595 17.2935 8.48141 18.2017 7.67247C19.11 6.86352 20.2838 6.41659 21.5 6.41669V6.41669Z" fill="white"/>
<path d="M47.25 9.98C47.99 9.98 48.6367 10.1267 49.19 10.42C49.7433 10.7133 50.17 11.1267 50.47 11.66C50.7767 12.1867 50.93 12.7967 50.93 13.49C50.93 14.1767 50.7767 14.7867 50.47 15.32C50.17 15.8533 49.74 16.2667 49.18 16.56C48.6267 16.8533 47.9833 17 47.25 17H44.62V9.98H47.25ZM47.14 15.52C47.7867 15.52 48.29 15.3433 48.65 14.99C49.01 14.6367 49.19 14.1367 49.19 13.49C49.19 12.8433 49.01 12.34 48.65 11.98C48.29 11.62 47.7867 11.44 47.14 11.44H46.33V15.52H47.14ZM55.6256 17.08C55.079 17.08 54.5856 16.9633 54.1456 16.73C53.7123 16.4967 53.369 16.1633 53.1156 15.73C52.869 15.2967 52.7456 14.79 52.7456 14.21C52.7456 13.6367 52.8723 13.1333 53.1256 12.7C53.379 12.26 53.7256 11.9233 54.1656 11.69C54.6056 11.4567 55.099 11.34 55.6456 11.34C56.1923 11.34 56.6856 11.4567 57.1256 11.69C57.5656 11.9233 57.9123 12.26 58.1656 12.7C58.419 13.1333 58.5456 13.6367 58.5456 14.21C58.5456 14.7833 58.4156 15.29 58.1556 15.73C57.9023 16.1633 57.5523 16.4967 57.1056 16.73C56.6656 16.9633 56.1723 17.08 55.6256 17.08ZM55.6256 15.6C55.9523 15.6 56.229 15.48 56.4556 15.24C56.689 15 56.8056 14.6567 56.8056 14.21C56.8056 13.7633 56.6923 13.42 56.4656 13.18C56.2456 12.94 55.9723 12.82 55.6456 12.82C55.3123 12.82 55.0356 12.94 54.8156 13.18C54.5956 13.4133 54.4856 13.7567 54.4856 14.21C54.4856 14.6567 54.5923 15 54.8056 15.24C55.0256 15.48 55.299 15.6 55.6256 15.6ZM68.6628 11.42L67.1528 17H65.2628L64.3828 13.38L63.4728 17H61.5928L60.0728 11.42H61.7828L62.5728 15.41L63.5128 11.42H65.3228L66.2728 15.39L67.0528 11.42H68.6628ZM73.9149 11.36C74.5683 11.36 75.0883 11.5733 75.4749 12C75.8683 12.42 76.0649 13 76.0649 13.74V17H74.3649V13.97C74.3649 13.5967 74.2683 13.3067 74.0749 13.1C73.8816 12.8933 73.6216 12.79 73.2949 12.79C72.9683 12.79 72.7083 12.8933 72.5149 13.1C72.3216 13.3067 72.2249 13.5967 72.2249 13.97V17H70.5149V11.42H72.2249V12.16C72.3983 11.9133 72.6316 11.72 72.9249 11.58C73.2183 11.4333 73.5483 11.36 73.9149 11.36ZM80.1632 9.6V17H78.4532V9.6H80.1632ZM85.1424 17.08C84.5958 17.08 84.1024 16.9633 83.6624 16.73C83.2291 16.4967 82.8858 16.1633 82.6324 15.73C82.3858 15.2967 82.2624 14.79 82.2624 14.21C82.2624 13.6367 82.3891 13.1333 82.6424 12.7C82.8958 12.26 83.2424 11.9233 83.6824 11.69C84.1224 11.4567 84.6158 11.34 85.1624 11.34C85.7091 11.34 86.2024 11.4567 86.6424 11.69C87.0824 11.9233 87.4291 12.26 87.6824 12.7C87.9358 13.1333 88.0624 13.6367 88.0624 14.21C88.0624 14.7833 87.9324 15.29 87.6724 15.73C87.4191 16.1633 87.0691 16.4967 86.6224 16.73C86.1824 16.9633 85.6891 17.08 85.1424 17.08ZM85.1424 15.6C85.4691 15.6 85.7458 15.48 85.9724 15.24C86.2058 15 86.3224 14.6567 86.3224 14.21C86.3224 13.7633 86.2091 13.42 85.9824 13.18C85.7624 12.94 85.4891 12.82 85.1624 12.82C84.8291 12.82 84.5524 12.94 84.3324 13.18C84.1124 13.4133 84.0024 13.7567 84.0024 14.21C84.0024 14.6567 84.1091 15 84.3224 15.24C84.5424 15.48 84.8158 15.6 85.1424 15.6ZM89.8296 14.2C89.8296 13.6267 89.9363 13.1233 90.1496 12.69C90.3696 12.2567 90.6663 11.9233 91.0396 11.69C91.4129 11.4567 91.8296 11.34 92.2896 11.34C92.6829 11.34 93.0263 11.42 93.3196 11.58C93.6196 11.74 93.8496 11.95 94.0096 12.21V11.42H95.7196V17H94.0096V16.21C93.8429 16.47 93.6096 16.68 93.3096 16.84C93.0163 17 92.6729 17.08 92.2796 17.08C91.8263 17.08 91.4129 16.9633 91.0396 16.73C90.6663 16.49 90.3696 16.1533 90.1496 15.72C89.9363 15.28 89.8296 14.7733 89.8296 14.2ZM94.0096 14.21C94.0096 13.7833 93.8896 13.4467 93.6496 13.2C93.4163 12.9533 93.1296 12.83 92.7896 12.83C92.4496 12.83 92.1596 12.9533 91.9196 13.2C91.6863 13.44 91.5696 13.7733 91.5696 14.2C91.5696 14.6267 91.6863 14.9667 91.9196 15.22C92.1596 15.4667 92.4496 15.59 92.7896 15.59C93.1296 15.59 93.4163 15.4667 93.6496 15.22C93.8896 14.9733 94.0096 14.6367 94.0096 14.21ZM97.8167 14.2C97.8167 13.6267 97.9234 13.1233 98.1367 12.69C98.3567 12.2567 98.6534 11.9233 99.0267 11.69C99.4001 11.4567 99.8167 11.34 100.277 11.34C100.643 11.34 100.977 11.4167 101.277 11.57C101.583 11.7233 101.823 11.93 101.997 12.19V9.6H103.707V17H101.997V16.2C101.837 16.4667 101.607 16.68 101.307 16.84C101.013 17 100.67 17.08 100.277 17.08C99.8167 17.08 99.4001 16.9633 99.0267 16.73C98.6534 16.49 98.3567 16.1533 98.1367 15.72C97.9234 15.28 97.8167 14.7733 97.8167 14.2ZM101.997 14.21C101.997 13.7833 101.877 13.4467 101.637 13.2C101.403 12.9533 101.117 12.83 100.777 12.83C100.437 12.83 100.147 12.9533 99.9067 13.2C99.6734 13.44 99.5567 13.7733 99.5567 14.2C99.5567 14.6267 99.6734 14.9667 99.9067 15.22C100.147 15.4667 100.437 15.59 100.777 15.59C101.117 15.59 101.403 15.4667 101.637 15.22C101.877 14.9733 101.997 14.6367 101.997 14.21Z" fill="white"/>
</svg>
