<svg width="123" height="28" viewBox="0 0 123 28" fill="none" xmlns="http://www.w3.org/2000/svg">
<rect width="123" height="28" fill="#D66700"/>
<path d="M21.4998 20.5833C17.5877 20.5833 14.4165 17.4121 14.4165 13.5C14.4165 9.58787 17.5877 6.41666 21.4998 6.41666C25.412 6.41666 28.5832 9.58787 28.5832 13.5C28.5832 17.4121 25.412 20.5833 21.4998 20.5833ZM20.7915 12.7917V17.0417H22.2082V12.7917H20.7915ZM20.7915 9.95832V11.375H22.2082V9.95832H20.7915Z" fill="white"/>
<path d="M48.99 15.76H46.37L45.95 17H44.16L46.7 9.98H48.68L51.22 17H49.41L48.99 15.76ZM48.55 14.44L47.68 11.87L46.82 14.44H48.55ZM54.903 12.21C55.063 11.95 55.293 11.74 55.593 11.58C55.893 11.42 56.2364 11.34 56.623 11.34C57.083 11.34 57.4997 11.4567 57.873 11.69C58.2464 11.9233 58.5397 12.2567 58.753 12.69C58.973 13.1233 59.083 13.6267 59.083 14.2C59.083 14.7733 58.973 15.28 58.753 15.72C58.5397 16.1533 58.2464 16.49 57.873 16.73C57.4997 16.9633 57.083 17.08 56.623 17.08C56.2297 17.08 55.8864 17.0033 55.593 16.85C55.2997 16.69 55.0697 16.48 54.903 16.22V17H53.193V9.6H54.903V12.21ZM57.343 14.2C57.343 13.7733 57.223 13.44 56.983 13.2C56.7497 12.9533 56.4597 12.83 56.113 12.83C55.773 12.83 55.483 12.9533 55.243 13.2C55.0097 13.4467 54.893 13.7833 54.893 14.21C54.893 14.6367 55.0097 14.9733 55.243 15.22C55.483 15.4667 55.773 15.59 56.113 15.59C56.453 15.59 56.743 15.4667 56.983 15.22C57.223 14.9667 57.343 14.6267 57.343 14.2ZM63.7202 17.08C63.1735 17.08 62.6802 16.9633 62.2402 16.73C61.8068 16.4967 61.4635 16.1633 61.2102 15.73C60.9635 15.2967 60.8402 14.79 60.8402 14.21C60.8402 13.6367 60.9668 13.1333 61.2202 12.7C61.4735 12.26 61.8202 11.9233 62.2602 11.69C62.7002 11.4567 63.1935 11.34 63.7402 11.34C64.2868 11.34 64.7802 11.4567 65.2202 11.69C65.6602 11.9233 66.0068 12.26 66.2602 12.7C66.5135 13.1333 66.6402 13.6367 66.6402 14.21C66.6402 14.7833 66.5102 15.29 66.2502 15.73C65.9968 16.1633 65.6468 16.4967 65.2002 16.73C64.7602 16.9633 64.2668 17.08 63.7202 17.08ZM63.7202 15.6C64.0468 15.6 64.3235 15.48 64.5502 15.24C64.7835 15 64.9002 14.6567 64.9002 14.21C64.9002 13.7633 64.7868 13.42 64.5602 13.18C64.3402 12.94 64.0668 12.82 63.7402 12.82C63.4068 12.82 63.1302 12.94 62.9102 13.18C62.6902 13.4133 62.5802 13.7567 62.5802 14.21C62.5802 14.6567 62.6868 15 62.9002 15.24C63.1202 15.48 63.3935 15.6 63.7202 15.6ZM74.2573 11.42V17H72.5473V16.24C72.374 16.4867 72.1373 16.6867 71.8373 16.84C71.544 16.9867 71.2173 17.06 70.8573 17.06C70.4307 17.06 70.054 16.9667 69.7273 16.78C69.4007 16.5867 69.1473 16.31 68.9673 15.95C68.7873 15.59 68.6973 15.1667 68.6973 14.68V11.42H70.3973V14.45C70.3973 14.8233 70.494 15.1133 70.6873 15.32C70.8807 15.5267 71.1407 15.63 71.4673 15.63C71.8007 15.63 72.064 15.5267 72.2573 15.32C72.4507 15.1133 72.5473 14.8233 72.5473 14.45V11.42H74.2573ZM79.7956 15.55V17H78.9256C78.3056 17 77.8223 16.85 77.4756 16.55C77.129 16.2433 76.9556 15.7467 76.9556 15.06V12.84H76.2756V11.42H76.9556V10.06H78.6656V11.42H79.7856V12.84H78.6656V15.08C78.6656 15.2467 78.7056 15.3667 78.7856 15.44C78.8656 15.5133 78.999 15.55 79.1856 15.55H79.7956ZM93.2173 9.98V17H91.5073V12.79L89.9373 17H88.5573L86.9773 12.78V17H85.2673V9.98H87.2873L89.2573 14.84L91.2073 9.98H93.2173ZM100.907 14.12C100.907 14.28 100.897 14.4467 100.877 14.62H97.007C97.0336 14.9667 97.1436 15.2333 97.337 15.42C97.537 15.6 97.7803 15.69 98.067 15.69C98.4936 15.69 98.7903 15.51 98.957 15.15H100.777C100.684 15.5167 100.514 15.8467 100.267 16.14C100.027 16.4333 99.7236 16.6633 99.357 16.83C98.9903 16.9967 98.5803 17.08 98.127 17.08C97.5803 17.08 97.0936 16.9633 96.667 16.73C96.2403 16.4967 95.907 16.1633 95.667 15.73C95.427 15.2967 95.307 14.79 95.307 14.21C95.307 13.63 95.4236 13.1233 95.657 12.69C95.897 12.2567 96.2303 11.9233 96.657 11.69C97.0836 11.4567 97.5736 11.34 98.127 11.34C98.667 11.34 99.147 11.4533 99.567 11.68C99.987 11.9067 100.314 12.23 100.547 12.65C100.787 13.07 100.907 13.56 100.907 14.12ZM99.157 13.67C99.157 13.3767 99.057 13.1433 98.857 12.97C98.657 12.7967 98.407 12.71 98.107 12.71C97.8203 12.71 97.577 12.7933 97.377 12.96C97.1836 13.1267 97.0636 13.3633 97.017 13.67H99.157Z" fill="white"/>
</svg>
