<svg width="108" height="28" viewBox="0 0 108 28" fill="none" xmlns="http://www.w3.org/2000/svg">
<rect width="108" height="28" fill="#FF91B2"/>
<path d="M22.9791 6.41666C23.3445 6.41662 23.7054 6.49735 24.036 6.65307C24.3665 6.8088 24.6585 7.03566 24.8912 7.31743C25.1238 7.59921 25.2913 7.92892 25.3816 8.28297C25.4719 8.63703 25.4829 9.00667 25.4137 9.36545L25.403 9.4122C26.0193 9.61776 26.558 10.0066 26.9472 10.5268C27.3364 11.0469 27.5575 11.6735 27.5808 12.3227C27.6042 12.9719 27.4287 13.6127 27.0778 14.1595C26.727 14.7062 26.2176 15.1327 25.6177 15.382L24.8484 19.9912C24.8209 20.1566 24.7356 20.3068 24.6078 20.4153C24.4799 20.5237 24.3177 20.5832 24.15 20.5833H16.8499C16.6823 20.5832 16.52 20.5237 16.3922 20.4153C16.2643 20.3068 16.179 20.1566 16.1515 19.9912L15.4226 15.6207C14.9324 15.5929 14.4669 15.3962 14.1054 15.064C13.7438 14.7319 13.5084 14.2847 13.4392 13.7986C13.37 13.3125 13.4713 12.8174 13.7258 12.3976C13.9803 11.9777 14.3724 11.6589 14.8354 11.4954L14.8333 11.375C14.8332 10.6578 15.0145 9.95218 15.3605 9.32394C15.7065 8.69569 16.2059 8.16522 16.8121 7.78194C17.4183 7.39865 18.1116 7.17502 18.8276 7.13186C19.5435 7.0887 20.2587 7.22743 20.9065 7.53512C21.132 7.19128 21.4395 6.90899 21.8014 6.71373C22.1632 6.51846 22.568 6.41637 22.9791 6.41666V6.41666ZM18.375 15.625H16.8591L17.4499 19.1667H18.375V15.625ZM21.2083 15.625H19.7916V19.1667H21.2083V15.625ZM24.1401 15.625H22.625V19.1667H23.5493L24.1401 15.625ZM19.0833 8.54166C17.566 8.54166 16.3272 9.73449 16.2535 11.2099L16.25 11.3495L16.2521 11.4699C16.2571 11.7481 16.1801 12.0215 16.0307 12.2562C15.8813 12.4909 15.6661 12.6764 15.412 12.7895L15.3058 12.8313C15.1485 12.8873 15.016 12.997 14.9317 13.1411C14.8473 13.2852 14.8165 13.4544 14.8447 13.619C14.8729 13.7836 14.9583 13.9329 15.0858 14.0407C15.2132 14.1485 15.3747 14.2079 15.5416 14.2083H24.3958C24.6576 14.2083 24.9162 14.1503 25.1529 14.0383C25.3895 13.9264 25.5985 13.7634 25.7646 13.561C25.9307 13.3586 26.0498 13.1219 26.1135 12.868C26.1771 12.614 26.1837 12.3491 26.1326 12.0923C26.0816 11.8355 25.9743 11.5932 25.8183 11.3829C25.6624 11.1726 25.4618 10.9994 25.2309 10.876C25 10.7525 24.7447 10.6817 24.4832 10.6688C24.2217 10.6559 23.9605 10.7011 23.7186 10.8012L23.5947 10.8586C23.2678 11.027 22.8883 11.0618 22.5363 10.9555C22.1843 10.8492 21.8874 10.6103 21.7084 10.2891L21.6588 10.1921C21.4324 9.69938 21.0694 9.28198 20.6129 8.98944C20.1564 8.69689 19.6255 8.54148 19.0833 8.54166ZM22.9791 7.83332C22.7955 7.83329 22.615 7.88083 22.4552 7.97133C22.2955 8.06183 22.1619 8.19219 22.0675 8.3497C22.4333 8.7098 22.7308 9.13312 22.9458 9.5992C23.2603 9.4377 23.6046 9.3272 23.9701 9.27832C24.0322 9.11738 24.0542 8.94374 24.0341 8.7724C24.0141 8.60106 23.9526 8.43718 23.8551 8.29491C23.7575 8.15264 23.6268 8.03627 23.4742 7.95585C23.3215 7.87543 23.1516 7.83337 22.9791 7.83332V7.83332Z" fill="#323232"/>
<path d="M44.33 13.48C44.33 12.7867 44.48 12.17 44.78 11.63C45.08 11.0833 45.4967 10.66 46.03 10.36C46.57 10.0533 47.18 9.9 47.86 9.9C48.6933 9.9 49.4067 10.12 50 10.56C50.5933 11 50.99 11.6 51.19 12.36H49.31C49.17 12.0667 48.97 11.8433 48.71 11.69C48.4567 11.5367 48.1667 11.46 47.84 11.46C47.3133 11.46 46.8867 11.6433 46.56 12.01C46.2333 12.3767 46.07 12.8667 46.07 13.48C46.07 14.0933 46.2333 14.5833 46.56 14.95C46.8867 15.3167 47.3133 15.5 47.84 15.5C48.1667 15.5 48.4567 15.4233 48.71 15.27C48.97 15.1167 49.17 14.8933 49.31 14.6H51.19C50.99 15.36 50.5933 15.96 50 16.4C49.4067 16.8333 48.6933 17.05 47.86 17.05C47.18 17.05 46.57 16.9 46.03 16.6C45.4967 16.2933 45.08 15.87 44.78 15.33C44.48 14.79 44.33 14.1733 44.33 13.48ZM55.1472 12.35C55.3472 12.0433 55.5972 11.8033 55.8972 11.63C56.1972 11.45 56.5305 11.36 56.8972 11.36V13.17H56.4272C56.0005 13.17 55.6805 13.2633 55.4672 13.45C55.2539 13.63 55.1472 13.95 55.1472 14.41V17H53.4372V11.42H55.1472V12.35ZM64.1745 14.12C64.1745 14.28 64.1645 14.4467 64.1445 14.62H60.2745C60.3012 14.9667 60.4112 15.2333 60.6045 15.42C60.8045 15.6 61.0479 15.69 61.3345 15.69C61.7612 15.69 62.0579 15.51 62.2245 15.15H64.0445C63.9512 15.5167 63.7812 15.8467 63.5345 16.14C63.2945 16.4333 62.9912 16.6633 62.6245 16.83C62.2579 16.9967 61.8479 17.08 61.3945 17.08C60.8479 17.08 60.3612 16.9633 59.9345 16.73C59.5079 16.4967 59.1745 16.1633 58.9345 15.73C58.6945 15.2967 58.5745 14.79 58.5745 14.21C58.5745 13.63 58.6912 13.1233 58.9245 12.69C59.1645 12.2567 59.4979 11.9233 59.9245 11.69C60.3512 11.4567 60.8412 11.34 61.3945 11.34C61.9345 11.34 62.4145 11.4533 62.8345 11.68C63.2545 11.9067 63.5812 12.23 63.8145 12.65C64.0545 13.07 64.1745 13.56 64.1745 14.12ZM62.4245 13.67C62.4245 13.3767 62.3245 13.1433 62.1245 12.97C61.9245 12.7967 61.6745 12.71 61.3745 12.71C61.0879 12.71 60.8445 12.7933 60.6445 12.96C60.4512 13.1267 60.3312 13.3633 60.2845 13.67H62.4245ZM65.9366 14.2C65.9366 13.6267 66.0433 13.1233 66.2566 12.69C66.4766 12.2567 66.7733 11.9233 67.1466 11.69C67.52 11.4567 67.9366 11.34 68.3966 11.34C68.7633 11.34 69.0966 11.4167 69.3966 11.57C69.7033 11.7233 69.9433 11.93 70.1166 12.19V9.6H71.8266V17H70.1166V16.2C69.9566 16.4667 69.7266 16.68 69.4266 16.84C69.1333 17 68.79 17.08 68.3966 17.08C67.9366 17.08 67.52 16.9633 67.1466 16.73C66.7733 16.49 66.4766 16.1533 66.2566 15.72C66.0433 15.28 65.9366 14.7733 65.9366 14.2ZM70.1166 14.21C70.1166 13.7833 69.9966 13.4467 69.7566 13.2C69.5233 12.9533 69.2366 12.83 68.8966 12.83C68.5566 12.83 68.2666 12.9533 68.0266 13.2C67.7933 13.44 67.6766 13.7733 67.6766 14.2C67.6766 14.6267 67.7933 14.9667 68.0266 15.22C68.2666 15.4667 68.5566 15.59 68.8966 15.59C69.2366 15.59 69.5233 15.4667 69.7566 15.22C69.9966 14.9733 70.1166 14.6367 70.1166 14.21ZM75.1237 10.84C74.8237 10.84 74.5771 10.7533 74.3837 10.58C74.1971 10.4 74.1037 10.18 74.1037 9.92C74.1037 9.65333 74.1971 9.43333 74.3837 9.26C74.5771 9.08 74.8237 8.99 75.1237 8.99C75.4171 8.99 75.6571 9.08 75.8437 9.26C76.0371 9.43333 76.1337 9.65333 76.1337 9.92C76.1337 10.18 76.0371 10.4 75.8437 10.58C75.6571 10.7533 75.4171 10.84 75.1237 10.84ZM75.9737 11.42V17H74.2637V11.42H75.9737ZM81.523 15.55V17H80.653C80.033 17 79.5496 16.85 79.203 16.55C78.8563 16.2433 78.683 15.7467 78.683 15.06V12.84H78.003V11.42H78.683V10.06H80.393V11.42H81.513V12.84H80.393V15.08C80.393 15.2467 80.433 15.3667 80.513 15.44C80.593 15.5133 80.7263 15.55 80.913 15.55H81.523ZM85.9455 17.08C85.4588 17.08 85.0255 16.9967 84.6455 16.83C84.2655 16.6633 83.9655 16.4367 83.7455 16.15C83.5255 15.8567 83.4021 15.53 83.3755 15.17H85.0655C85.0855 15.3633 85.1755 15.52 85.3355 15.64C85.4955 15.76 85.6921 15.82 85.9255 15.82C86.1388 15.82 86.3021 15.78 86.4155 15.7C86.5355 15.6133 86.5955 15.5033 86.5955 15.37C86.5955 15.21 86.5121 15.0933 86.3455 15.02C86.1788 14.94 85.9088 14.8533 85.5355 14.76C85.1355 14.6667 84.8021 14.57 84.5355 14.47C84.2688 14.3633 84.0388 14.2 83.8455 13.98C83.6521 13.7533 83.5555 13.45 83.5555 13.07C83.5555 12.75 83.6421 12.46 83.8155 12.2C83.9955 11.9333 84.2555 11.7233 84.5955 11.57C84.9421 11.4167 85.3521 11.34 85.8255 11.34C86.5255 11.34 87.0755 11.5133 87.4755 11.86C87.8821 12.2067 88.1155 12.6667 88.1755 13.24H86.5955C86.5688 13.0467 86.4821 12.8933 86.3355 12.78C86.1955 12.6667 86.0088 12.61 85.7755 12.61C85.5755 12.61 85.4221 12.65 85.3155 12.73C85.2088 12.8033 85.1555 12.9067 85.1555 13.04C85.1555 13.2 85.2388 13.32 85.4055 13.4C85.5788 13.48 85.8455 13.56 86.2055 13.64C86.6188 13.7467 86.9555 13.8533 87.2155 13.96C87.4755 14.06 87.7021 14.2267 87.8955 14.46C88.0955 14.6867 88.1988 14.9933 88.2055 15.38C88.2055 15.7067 88.1121 16 87.9255 16.26C87.7455 16.5133 87.4821 16.7133 87.1355 16.86C86.7955 17.0067 86.3988 17.08 85.9455 17.08Z" fill="#323232"/>
</svg>
