<svg width="108" height="28" viewBox="0 0 108 28" fill="none" xmlns="http://www.w3.org/2000/svg">
<rect width="108" height="28" fill="#FF91B2"/>
<path d="M24.5072 15.5031L23.5056 14.5016L24.5072 13.5C24.7703 13.2369 24.979 12.9245 25.1214 12.5808C25.2638 12.237 25.3371 11.8686 25.3371 11.4965C25.3371 11.1244 25.2638 10.7559 25.1214 10.4122C24.979 10.0684 24.7703 9.75605 24.5072 9.49294C24.2441 9.22983 23.9317 9.02113 23.588 8.87874C23.2442 8.73634 22.8758 8.66306 22.5037 8.66306C22.1316 8.66306 21.7632 8.73634 21.4194 8.87874C21.0756 9.02113 20.7633 9.22983 20.5002 9.49294L19.4986 10.4945L18.497 9.49294L19.4986 8.49136C20.2978 7.70505 21.3753 7.26641 22.4965 7.27097C23.6177 7.27554 24.6916 7.72294 25.4844 8.51573C26.2772 9.30852 26.7246 10.3825 26.7292 11.5036C26.7337 12.6248 26.2951 13.7023 25.5088 14.5016L24.5072 15.5031V15.5031ZM22.5033 17.507L21.5017 18.5086C21.1083 18.9085 20.6395 19.2266 20.1225 19.4445C19.6055 19.6623 19.0505 19.7757 18.4895 19.7779C17.9284 19.7802 17.3725 19.6714 16.8538 19.4578C16.335 19.2441 15.8637 18.9299 15.467 18.5332C15.0703 18.1365 14.756 17.6651 14.5424 17.1464C14.3287 16.6276 14.2199 16.0717 14.2222 15.5107C14.2245 14.9496 14.3378 14.3946 14.5557 13.8776C14.7735 13.3606 15.0916 12.8919 15.4915 12.4984L16.4931 11.4968L17.4947 12.4984L16.4931 13.5C16.23 13.7631 16.0213 14.0754 15.8789 14.4192C15.7365 14.763 15.6632 15.1314 15.6632 15.5035C15.6632 15.8756 15.7365 16.244 15.8789 16.5878C16.0213 16.9316 16.23 17.2439 16.4931 17.507C16.7562 17.7701 17.0686 17.9788 17.4123 18.1212C17.7561 18.2636 18.1246 18.3369 18.4966 18.3369C18.8687 18.3369 19.2372 18.2636 19.5809 18.1212C19.9247 17.9788 20.2371 17.7701 20.5002 17.507L21.5017 16.5054L22.5033 17.507ZM22.5033 10.4945L23.5056 11.4968L18.497 16.5047L17.4947 15.5031L22.5033 10.4952V10.4945Z" fill="#323232"/>
<path d="M47.16 17.07C46.6467 17.07 46.1867 16.9867 45.78 16.82C45.3733 16.6533 45.0467 16.4067 44.8 16.08C44.56 15.7533 44.4333 15.36 44.42 14.9H46.24C46.2667 15.16 46.3567 15.36 46.51 15.5C46.6633 15.6333 46.8633 15.7 47.11 15.7C47.3633 15.7 47.5633 15.6433 47.71 15.53C47.8567 15.41 47.93 15.2467 47.93 15.04C47.93 14.8667 47.87 14.7233 47.75 14.61C47.6367 14.4967 47.4933 14.4033 47.32 14.33C47.1533 14.2567 46.9133 14.1733 46.6 14.08C46.1467 13.94 45.7767 13.8 45.49 13.66C45.2033 13.52 44.9567 13.3133 44.75 13.04C44.5433 12.7667 44.44 12.41 44.44 11.97C44.44 11.3167 44.6767 10.8067 45.15 10.44C45.6233 10.0667 46.24 9.88 47 9.88C47.7733 9.88 48.3967 10.0667 48.87 10.44C49.3433 10.8067 49.5967 11.32 49.63 11.98H47.78C47.7667 11.7533 47.6833 11.5767 47.53 11.45C47.3767 11.3167 47.18 11.25 46.94 11.25C46.7333 11.25 46.5667 11.3067 46.44 11.42C46.3133 11.5267 46.25 11.6833 46.25 11.89C46.25 12.1167 46.3567 12.2933 46.57 12.42C46.7833 12.5467 47.1167 12.6833 47.57 12.83C48.0233 12.9833 48.39 13.13 48.67 13.27C48.9567 13.41 49.2033 13.6133 49.41 13.88C49.6167 14.1467 49.72 14.49 49.72 14.91C49.72 15.31 49.6167 15.6733 49.41 16C49.21 16.3267 48.9167 16.5867 48.53 16.78C48.1433 16.9733 47.6867 17.07 47.16 17.07ZM54.5123 17.08C53.9657 17.08 53.4723 16.9633 53.0323 16.73C52.599 16.4967 52.2557 16.1633 52.0023 15.73C51.7557 15.2967 51.6323 14.79 51.6323 14.21C51.6323 13.6367 51.759 13.1333 52.0123 12.7C52.2657 12.26 52.6123 11.9233 53.0523 11.69C53.4923 11.4567 53.9857 11.34 54.5323 11.34C55.079 11.34 55.5723 11.4567 56.0123 11.69C56.4523 11.9233 56.799 12.26 57.0523 12.7C57.3057 13.1333 57.4323 13.6367 57.4323 14.21C57.4323 14.7833 57.3023 15.29 57.0423 15.73C56.789 16.1633 56.439 16.4967 55.9923 16.73C55.5523 16.9633 55.059 17.08 54.5123 17.08ZM54.5123 15.6C54.839 15.6 55.1157 15.48 55.3423 15.24C55.5757 15 55.6923 14.6567 55.6923 14.21C55.6923 13.7633 55.579 13.42 55.3523 13.18C55.1323 12.94 54.859 12.82 54.5323 12.82C54.199 12.82 53.9223 12.94 53.7023 13.18C53.4823 13.4133 53.3723 13.7567 53.3723 14.21C53.3723 14.6567 53.479 15 53.6923 15.24C53.9123 15.48 54.1857 15.6 54.5123 15.6ZM65.0495 11.42V17H63.3395V16.24C63.1662 16.4867 62.9295 16.6867 62.6295 16.84C62.3362 16.9867 62.0095 17.06 61.6495 17.06C61.2229 17.06 60.8462 16.9667 60.5195 16.78C60.1929 16.5867 59.9395 16.31 59.7595 15.95C59.5795 15.59 59.4895 15.1667 59.4895 14.68V11.42H61.1895V14.45C61.1895 14.8233 61.2862 15.1133 61.4795 15.32C61.6729 15.5267 61.9329 15.63 62.2595 15.63C62.5929 15.63 62.8562 15.5267 63.0495 15.32C63.2429 15.1133 63.3395 14.8233 63.3395 14.45V11.42H65.0495ZM69.1878 12.35C69.3878 12.0433 69.6378 11.8033 69.9378 11.63C70.2378 11.45 70.5711 11.36 70.9378 11.36V13.17H70.4678C70.0411 13.17 69.7211 13.2633 69.5078 13.45C69.2945 13.63 69.1878 13.95 69.1878 14.41V17H67.4778V11.42H69.1878V12.35ZM72.6152 14.21C72.6152 13.63 72.7318 13.1233 72.9652 12.69C73.2052 12.2567 73.5352 11.9233 73.9552 11.69C74.3818 11.4567 74.8685 11.34 75.4152 11.34C76.1152 11.34 76.6985 11.5233 77.1652 11.89C77.6385 12.2567 77.9485 12.7733 78.0952 13.44H76.2752C76.1218 13.0133 75.8252 12.8 75.3852 12.8C75.0718 12.8 74.8218 12.9233 74.6352 13.17C74.4485 13.41 74.3552 13.7567 74.3552 14.21C74.3552 14.6633 74.4485 15.0133 74.6352 15.26C74.8218 15.5 75.0718 15.62 75.3852 15.62C75.8252 15.62 76.1218 15.4067 76.2752 14.98H78.0952C77.9485 15.6333 77.6385 16.1467 77.1652 16.52C76.6918 16.8933 76.1085 17.08 75.4152 17.08C74.8685 17.08 74.3818 16.9633 73.9552 16.73C73.5352 16.4967 73.2052 16.1633 72.9652 15.73C72.7318 15.2967 72.6152 14.79 72.6152 14.21ZM85.4698 14.12C85.4698 14.28 85.4598 14.4467 85.4398 14.62H81.5698C81.5965 14.9667 81.7065 15.2333 81.8998 15.42C82.0998 15.6 82.3432 15.69 82.6298 15.69C83.0565 15.69 83.3532 15.51 83.5198 15.15H85.3398C85.2465 15.5167 85.0765 15.8467 84.8298 16.14C84.5898 16.4333 84.2865 16.6633 83.9198 16.83C83.5532 16.9967 83.1432 17.08 82.6898 17.08C82.1432 17.08 81.6565 16.9633 81.2298 16.73C80.8032 16.4967 80.4698 16.1633 80.2298 15.73C79.9898 15.2967 79.8698 14.79 79.8698 14.21C79.8698 13.63 79.9865 13.1233 80.2198 12.69C80.4598 12.2567 80.7932 11.9233 81.2198 11.69C81.6465 11.4567 82.1365 11.34 82.6898 11.34C83.2298 11.34 83.7098 11.4533 84.1298 11.68C84.5498 11.9067 84.8765 12.23 85.1098 12.65C85.3498 13.07 85.4698 13.56 85.4698 14.12ZM83.7198 13.67C83.7198 13.3767 83.6198 13.1433 83.4198 12.97C83.2198 12.7967 82.9698 12.71 82.6698 12.71C82.3832 12.71 82.1398 12.7933 81.9398 12.96C81.7465 13.1267 81.6265 13.3633 81.5798 13.67H83.7198Z" fill="#323232"/>
</svg>
