<svg width="115" height="28" viewBox="0 0 115 28" fill="none" xmlns="http://www.w3.org/2000/svg">
<rect width="115" height="28" fill="#FBFF48"/>
<path d="M23.3333 6.41666L26.875 9.95832V19.8807C26.8748 20.0671 26.8006 20.2458 26.6687 20.3776C26.5368 20.5093 26.358 20.5833 26.1716 20.5833H14.8284C14.6424 20.582 14.4643 20.5076 14.3327 20.3761C14.2011 20.2447 14.1265 20.0667 14.125 19.8807V7.11932C14.125 6.73116 14.4402 6.41666 14.8284 6.41666H23.3333ZM19.7917 9.95832V11.375H21.2083V9.95832H19.7917ZM19.7917 12.7917V17.0417H21.2083V12.7917H19.7917Z" fill="#7E8D21"/>
<path d="M52.57 9.98V17H50.86V12.79L49.29 17H47.91L46.33 12.78V17H44.62V9.98H46.64L48.61 14.84L50.56 9.98H52.57ZM57.5397 17.08C56.993 17.08 56.4997 16.9633 56.0597 16.73C55.6264 16.4967 55.283 16.1633 55.0297 15.73C54.783 15.2967 54.6597 14.79 54.6597 14.21C54.6597 13.6367 54.7864 13.1333 55.0397 12.7C55.293 12.26 55.6397 11.9233 56.0797 11.69C56.5197 11.4567 57.013 11.34 57.5597 11.34C58.1064 11.34 58.5997 11.4567 59.0397 11.69C59.4797 11.9233 59.8264 12.26 60.0797 12.7C60.333 13.1333 60.4597 13.6367 60.4597 14.21C60.4597 14.7833 60.3297 15.29 60.0697 15.73C59.8164 16.1633 59.4664 16.4967 59.0197 16.73C58.5797 16.9633 58.0864 17.08 57.5397 17.08ZM57.5397 15.6C57.8664 15.6 58.143 15.48 58.3697 15.24C58.603 15 58.7197 14.6567 58.7197 14.21C58.7197 13.7633 58.6064 13.42 58.3797 13.18C58.1597 12.94 57.8864 12.82 57.5597 12.82C57.2264 12.82 56.9497 12.94 56.7297 13.18C56.5097 13.4133 56.3997 13.7567 56.3997 14.21C56.3997 14.6567 56.5064 15 56.7197 15.24C56.9397 15.48 57.213 15.6 57.5397 15.6ZM64.2769 12.35C64.4769 12.0433 64.7269 11.8033 65.0269 11.63C65.3269 11.45 65.6602 11.36 66.0269 11.36V13.17H65.5569C65.1302 13.17 64.8102 13.2633 64.5969 13.45C64.3835 13.63 64.2769 13.95 64.2769 14.41V17H62.5669V11.42H64.2769V12.35ZM73.3042 14.12C73.3042 14.28 73.2942 14.4467 73.2742 14.62H69.4042C69.4309 14.9667 69.5409 15.2333 69.7342 15.42C69.9342 15.6 70.1776 15.69 70.4642 15.69C70.8909 15.69 71.1876 15.51 71.3542 15.15H73.1742C73.0809 15.5167 72.9109 15.8467 72.6642 16.14C72.4242 16.4333 72.1209 16.6633 71.7542 16.83C71.3876 16.9967 70.9776 17.08 70.5242 17.08C69.9776 17.08 69.4909 16.9633 69.0642 16.73C68.6376 16.4967 68.3042 16.1633 68.0642 15.73C67.8242 15.2967 67.7042 14.79 67.7042 14.21C67.7042 13.63 67.8209 13.1233 68.0542 12.69C68.2942 12.2567 68.6276 11.9233 69.0542 11.69C69.4809 11.4567 69.9709 11.34 70.5242 11.34C71.0642 11.34 71.5442 11.4533 71.9642 11.68C72.3842 11.9067 72.7109 12.23 72.9442 12.65C73.1842 13.07 73.3042 13.56 73.3042 14.12ZM71.5542 13.67C71.5542 13.3767 71.4542 13.1433 71.2542 12.97C71.0542 12.7967 70.8042 12.71 70.5042 12.71C70.2176 12.71 69.9742 12.7933 69.7742 12.96C69.5809 13.1267 69.4609 13.3633 69.4142 13.67H71.5542ZM80.4355 9.98V17H78.7255V9.98H80.4355ZM86.2747 11.36C86.928 11.36 87.448 11.5733 87.8347 12C88.228 12.42 88.4247 13 88.4247 13.74V17H86.7247V13.97C86.7247 13.5967 86.628 13.3067 86.4347 13.1C86.2414 12.8933 85.9814 12.79 85.6547 12.79C85.328 12.79 85.068 12.8933 84.8747 13.1C84.6814 13.3067 84.5847 13.5967 84.5847 13.97V17H82.8747V11.42H84.5847V12.16C84.758 11.9133 84.9914 11.72 85.2847 11.58C85.578 11.4333 85.908 11.36 86.2747 11.36ZM93.613 12.84H92.693V17H90.983V12.84H90.363V11.42H90.983V11.26C90.983 10.5733 91.1796 10.0533 91.573 9.7C91.9663 9.34 92.543 9.16 93.303 9.16C93.4296 9.16 93.523 9.16333 93.583 9.17V10.62C93.2563 10.6 93.0263 10.6467 92.893 10.76C92.7596 10.8733 92.693 11.0767 92.693 11.37V11.42H93.613V12.84ZM98.1565 17.08C97.6098 17.08 97.1165 16.9633 96.6765 16.73C96.2431 16.4967 95.8998 16.1633 95.6465 15.73C95.3998 15.2967 95.2765 14.79 95.2765 14.21C95.2765 13.6367 95.4031 13.1333 95.6565 12.7C95.9098 12.26 96.2565 11.9233 96.6965 11.69C97.1365 11.4567 97.6298 11.34 98.1765 11.34C98.7231 11.34 99.2165 11.4567 99.6565 11.69C100.096 11.9233 100.443 12.26 100.696 12.7C100.95 13.1333 101.076 13.6367 101.076 14.21C101.076 14.7833 100.946 15.29 100.686 15.73C100.433 16.1633 100.083 16.4967 99.6365 16.73C99.1965 16.9633 98.7031 17.08 98.1565 17.08ZM98.1565 15.6C98.4831 15.6 98.7598 15.48 98.9865 15.24C99.2198 15 99.3365 14.6567 99.3365 14.21C99.3365 13.7633 99.2231 13.42 98.9965 13.18C98.7765 12.94 98.5031 12.82 98.1765 12.82C97.8431 12.82 97.5665 12.94 97.3465 13.18C97.1265 13.4133 97.0165 13.7567 97.0165 14.21C97.0165 14.6567 97.1231 15 97.3365 15.24C97.5565 15.48 97.8298 15.6 98.1565 15.6Z" fill="#4E4812"/>
</svg>
